# xmcd
#
# Track frame offsets:
#	150
#	21567
#	50790
#	72911
#	119388
#	140309
#	175228
#	217676
#	248619
#
# Disc length: 3738 seconds
#
# Revision: 1
# Processed by: cddbd v1.4PL0 Copyright (c) Steve Scherf et al.
# Submitted via: CDmax 2.0
#
DISCID=7f0e9809
DTITLE=Eric Clapton - Estadio River Of Tears (disc2)
DYEAR=2001
DGENRE=Blues
TTITLE0=I Want a Little Girl
TTITLE1=Badge
TTITLE2=Hoochie Coochie Man
TTITLE3=Stormy Monday
TTITLE4=Cocaine
TTITLE5=Wonderful Tonight
TTITLE6=Layla
TTITLE7=Sunshine of Your Love
TTITLE8=Somewhere Over the Rainbow
EXTD=Eric Clapton\t\tguitar, vocals\nNathan East\t\tbass, vocals\nAndy Fairwe
EXTD=ather Low\tguitar, vocals\nSteve Gadd\t\tdrums\nDavid Sancious\t\tkeyboa
EXTD=rds, vocals, guitar\nGreg Phillinganes\t\tkeyboards, vocals\n\nRecorde
EXTD=d live at River Plate Stadium, Buenos Aires, Argentina on October 6, 2001
EXTT0=
EXTT1=
EXTT2=
EXTT3=
EXTT4=
EXTT5=
EXTT6=
EXTT7=
EXTT8=
PLAYORDER=
